<svg width="181" height="50" viewBox="0 0 181 50" fill="none" xmlns="http://www.w3.org/2000/svg">
<path d="M59.7159 21.0909C59.6307 20.3712 59.285 19.8125 58.679 19.4148C58.0729 19.017 57.3295 18.8182 56.4489 18.8182C55.8049 18.8182 55.2415 18.9223 54.7585 19.1307C54.2803 19.339 53.9063 19.6255 53.6364 19.9901C53.3712 20.3546 53.2386 20.7689 53.2386 21.233C53.2386 21.6212 53.331 21.955 53.5156 22.2344C53.705 22.509 53.9465 22.7386 54.2401 22.9233C54.5336 23.1032 54.8414 23.2524 55.1634 23.3707C55.4853 23.4844 55.7812 23.5767 56.0511 23.6477L57.5284 24.0455C57.9072 24.1449 58.3286 24.2822 58.7926 24.4574C59.2614 24.6326 59.7088 24.8717 60.1349 25.1747C60.5658 25.473 60.9209 25.8565 61.2003 26.3253C61.4796 26.794 61.6193 27.3693 61.6193 28.0511C61.6193 28.8371 61.4134 29.5473 61.0014 30.1818C60.5942 30.8163 59.9976 31.3205 59.2116 31.6946C58.4304 32.0687 57.4811 32.2557 56.3636 32.2557C55.322 32.2557 54.42 32.0876 53.6577 31.7514C52.9001 31.4152 52.3035 30.9465 51.8679 30.3452C51.437 29.7438 51.1932 29.0455 51.1364 28.25H52.9545C53.0019 28.7992 53.1866 29.2538 53.5085 29.6136C53.8352 29.9687 54.2472 30.2339 54.7443 30.4091C55.2462 30.5795 55.786 30.6648 56.3636 30.6648C57.036 30.6648 57.6397 30.5559 58.1747 30.3381C58.7098 30.1155 59.1335 29.8078 59.446 29.4148C59.7585 29.017 59.9148 28.553 59.9148 28.0227C59.9148 27.5398 59.7798 27.1468 59.5099 26.8438C59.2401 26.5407 58.8849 26.2945 58.4446 26.1051C58.0043 25.9157 57.5284 25.75 57.017 25.608L55.2273 25.0966C54.0909 24.7699 53.1913 24.3035 52.5284 23.6974C51.8655 23.0914 51.5341 22.2983 51.5341 21.3182C51.5341 20.5038 51.7543 19.7936 52.1946 19.1875C52.6397 18.5767 53.2363 18.1032 53.9844 17.767C54.7372 17.4261 55.5777 17.2557 56.5057 17.2557C57.4432 17.2557 58.2765 17.4238 59.0057 17.7599C59.7348 18.0914 60.3125 18.5459 60.7386 19.1236C61.1695 19.7012 61.3968 20.357 61.4205 21.0909H59.7159ZM65.9641 25.4375V32H64.288V17.4545H65.9641V22.7955H66.1062C66.3619 22.232 66.7454 21.7846 67.2567 21.4531C67.7728 21.117 68.4594 20.9489 69.3164 20.9489C70.0598 20.9489 70.7108 21.098 71.2695 21.3963C71.8282 21.6899 72.2615 22.142 72.5692 22.7528C72.8817 23.3589 73.038 24.1307 73.038 25.0682V32H71.3619V25.1818C71.3619 24.3153 71.137 23.6454 70.6871 23.1719C70.2421 22.6937 69.6242 22.4545 68.8335 22.4545C68.2842 22.4545 67.7918 22.5705 67.3562 22.8026C66.9253 23.0346 66.5844 23.3731 66.3335 23.8182C66.0872 24.2633 65.9641 24.803 65.9641 25.4375ZM80.5362 32.2273C79.5514 32.2273 78.6873 31.9929 77.9439 31.5241C77.2053 31.0554 76.6276 30.3996 76.2109 29.5568C75.799 28.714 75.593 27.7292 75.593 26.6023C75.593 25.4659 75.799 24.474 76.2109 23.6264C76.6276 22.7789 77.2053 22.1207 77.9439 21.652C78.6873 21.1832 79.5514 20.9489 80.5362 20.9489C81.5211 20.9489 82.3828 21.1832 83.1214 21.652C83.8648 22.1207 84.4425 22.7789 84.8544 23.6264C85.2711 24.474 85.4794 25.4659 85.4794 26.6023C85.4794 27.7292 85.2711 28.714 84.8544 29.5568C84.4425 30.3996 83.8648 31.0554 83.1214 31.5241C82.3828 31.9929 81.5211 32.2273 80.5362 32.2273ZM80.5362 30.7216C81.2843 30.7216 81.8999 30.5298 82.3828 30.1463C82.8658 29.7628 83.2232 29.2585 83.4553 28.6335C83.6873 28.0085 83.8033 27.3314 83.8033 26.6023C83.8033 25.8731 83.6873 25.1937 83.4553 24.5639C83.2232 23.9342 82.8658 23.4252 82.3828 23.0369C81.8999 22.6487 81.2843 22.4545 80.5362 22.4545C79.7881 22.4545 79.1726 22.6487 78.6896 23.0369C78.2067 23.4252 77.8492 23.9342 77.6172 24.5639C77.3852 25.1937 77.2692 25.8731 77.2692 26.6023C77.2692 27.3314 77.3852 28.0085 77.6172 28.6335C77.8492 29.2585 78.2067 29.7628 78.6896 30.1463C79.1726 30.5298 79.7881 30.7216 80.5362 30.7216ZM88.038 36.0909V21.0909H89.6573V22.8239H89.8562C89.9793 22.6345 90.1497 22.393 90.3675 22.0994C90.5901 21.8011 90.9073 21.536 91.3192 21.304C91.7359 21.0672 92.2994 20.9489 93.0096 20.9489C93.9281 20.9489 94.7378 21.1785 95.4386 21.6378C96.1393 22.0971 96.6862 22.7481 97.0792 23.5909C97.4722 24.4337 97.6687 25.428 97.6687 26.5739C97.6687 27.7292 97.4722 28.7306 97.0792 29.5781C96.6862 30.4209 96.1417 31.0743 95.4457 31.5384C94.7496 31.9976 93.9471 32.2273 93.038 32.2273C92.3372 32.2273 91.7762 32.1113 91.3548 31.8793C90.9334 31.6425 90.609 31.375 90.3817 31.0767C90.1545 30.7737 89.9793 30.5227 89.8562 30.3239H89.7141V36.0909H88.038ZM89.6857 26.5455C89.6857 27.3693 89.8065 28.0961 90.0479 28.7259C90.2894 29.3509 90.6422 29.8409 91.1062 30.196C91.5702 30.5464 92.1384 30.7216 92.8107 30.7216C93.5115 30.7216 94.0962 30.5369 94.565 30.1676C95.0385 29.7936 95.3936 29.2917 95.6303 28.6619C95.8718 28.0275 95.9925 27.322 95.9925 26.5455C95.9925 25.7784 95.8742 25.0871 95.6374 24.4716C95.4054 23.8513 95.0527 23.3613 94.5792 23.0014C94.1104 22.6368 93.521 22.4545 92.8107 22.4545C92.1289 22.4545 91.556 22.6274 91.092 22.973C90.628 23.3139 90.2776 23.7921 90.0408 24.4077C89.8041 25.0185 89.6857 25.7311 89.6857 26.5455ZM100.225 36.0909V21.0909H101.845V22.8239H102.044C102.167 22.6345 102.337 22.393 102.555 22.0994C102.778 21.8011 103.095 21.536 103.507 21.304C103.923 21.0672 104.487 20.9489 105.197 20.9489C106.116 20.9489 106.925 21.1785 107.626 21.6378C108.327 22.0971 108.874 22.7481 109.267 23.5909C109.66 24.4337 109.856 25.428 109.856 26.5739C109.856 27.7292 109.66 28.7306 109.267 29.5781C108.874 30.4209 108.329 31.0743 107.633 31.5384C106.937 31.9976 106.135 32.2273 105.225 32.2273C104.525 32.2273 103.964 32.1113 103.542 31.8793C103.121 31.6425 102.797 31.375 102.569 31.0767C102.342 30.7737 102.167 30.5227 102.044 30.3239H101.902V36.0909H100.225ZM101.873 26.5455C101.873 27.3693 101.994 28.0961 102.235 28.7259C102.477 29.3509 102.83 29.8409 103.294 30.196C103.758 30.5464 104.326 30.7216 104.998 30.7216C105.699 30.7216 106.284 30.5369 106.752 30.1676C107.226 29.7936 107.581 29.2917 107.818 28.6619C108.059 28.0275 108.18 27.322 108.18 26.5455C108.18 25.7784 108.062 25.0871 107.825 24.4716C107.593 23.8513 107.24 23.3613 106.767 23.0014C106.298 22.6368 105.708 22.4545 104.998 22.4545C104.316 22.4545 103.743 22.6274 103.279 22.973C102.815 23.3139 102.465 23.7921 102.228 24.4077C101.992 25.0185 101.873 25.7311 101.873 26.5455ZM112.413 32V21.0909H114.089V32H112.413ZM113.265 19.2727C112.939 19.2727 112.657 19.1615 112.42 18.9389C112.188 18.7164 112.072 18.4489 112.072 18.1364C112.072 17.8239 112.188 17.5563 112.42 17.3338C112.657 17.1113 112.939 17 113.265 17C113.592 17 113.871 17.1113 114.103 17.3338C114.34 17.5563 114.458 17.8239 114.458 18.1364C114.458 18.4489 114.34 18.7164 114.103 18.9389C113.871 19.1615 113.592 19.2727 113.265 19.2727ZM118.835 25.4375V32H117.159V21.0909H118.778V22.7955H118.92C119.176 22.2415 119.564 21.7964 120.085 21.4602C120.606 21.1193 121.278 20.9489 122.102 20.9489C122.841 20.9489 123.487 21.1004 124.041 21.4034C124.595 21.7017 125.026 22.1562 125.334 22.767C125.642 23.3731 125.795 24.1402 125.795 25.0682V32H124.119V25.1818C124.119 24.3248 123.897 23.6572 123.452 23.179C123.007 22.696 122.396 22.4545 121.619 22.4545C121.084 22.4545 120.606 22.5705 120.185 22.8026C119.768 23.0346 119.439 23.3731 119.197 23.8182C118.956 24.2633 118.835 24.803 118.835 25.4375ZM133.262 36.3182C132.452 36.3182 131.756 36.214 131.174 36.0057C130.591 35.8021 130.106 35.5322 129.718 35.196C129.334 34.8646 129.029 34.5095 128.801 34.1307L130.137 33.1932C130.288 33.392 130.48 33.6193 130.712 33.875C130.944 34.1354 131.261 34.3603 131.664 34.5497C132.071 34.7438 132.604 34.8409 133.262 34.8409C134.142 34.8409 134.869 34.6278 135.442 34.2017C136.015 33.7756 136.301 33.108 136.301 32.1989V29.983H136.159C136.036 30.1818 135.861 30.428 135.634 30.7216C135.411 31.0104 135.089 31.2685 134.668 31.4957C134.251 31.7183 133.688 31.8295 132.978 31.8295C132.097 31.8295 131.306 31.6212 130.605 31.2045C129.909 30.7879 129.358 30.1818 128.951 29.3864C128.548 28.5909 128.347 27.625 128.347 26.4886C128.347 25.3712 128.543 24.3982 128.936 23.5696C129.329 22.7363 129.876 22.0923 130.577 21.6378C131.278 21.1785 132.087 20.9489 133.006 20.9489C133.716 20.9489 134.28 21.0672 134.696 21.304C135.118 21.536 135.44 21.8011 135.662 22.0994C135.89 22.393 136.065 22.6345 136.188 22.8239H136.358V21.0909H137.978V32.3125C137.978 33.25 137.765 34.0123 137.338 34.5994C136.917 35.1913 136.349 35.6245 135.634 35.8991C134.924 36.1785 134.133 36.3182 133.262 36.3182ZM133.205 30.3239C133.877 30.3239 134.445 30.17 134.909 29.8622C135.373 29.5545 135.726 29.1117 135.968 28.5341C136.209 27.9564 136.33 27.2652 136.33 26.4602C136.33 25.6742 136.212 24.9806 135.975 24.3793C135.738 23.7779 135.388 23.3068 134.924 22.9659C134.46 22.625 133.887 22.4545 133.205 22.4545C132.495 22.4545 131.903 22.6345 131.429 22.9943C130.961 23.3542 130.608 23.8371 130.371 24.4432C130.139 25.0492 130.023 25.7216 130.023 26.4602C130.023 27.2178 130.141 27.8878 130.378 28.4702C130.62 29.0478 130.975 29.5024 131.444 29.8338C131.917 30.1605 132.504 30.3239 133.205 30.3239ZM152.978 22H151.216C151.112 21.4934 150.93 21.0483 150.669 20.6648C150.414 20.2812 150.101 19.9593 149.732 19.6989C149.367 19.4337 148.962 19.2348 148.517 19.1023C148.072 18.9697 147.608 18.9034 147.125 18.9034C146.245 18.9034 145.447 19.1259 144.732 19.571C144.022 20.0161 143.456 20.6719 143.034 21.5384C142.618 22.4048 142.409 23.4678 142.409 24.7273C142.409 25.9867 142.618 27.0497 143.034 27.9162C143.456 28.7827 144.022 29.4384 144.732 29.8835C145.447 30.3286 146.245 30.5511 147.125 30.5511C147.608 30.5511 148.072 30.4848 148.517 30.3523C148.962 30.2197 149.367 30.0232 149.732 29.7628C150.101 29.4976 150.414 29.1733 150.669 28.7898C150.93 28.4015 151.112 27.9564 151.216 27.4545H152.978C152.845 28.1979 152.604 28.8632 152.253 29.4503C151.903 30.0374 151.467 30.5369 150.946 30.9489C150.426 31.3561 149.841 31.6662 149.192 31.8793C148.548 32.0923 147.859 32.1989 147.125 32.1989C145.885 32.1989 144.782 31.8958 143.816 31.2898C142.85 30.6837 142.09 29.822 141.536 28.7045C140.982 27.5871 140.705 26.2614 140.705 24.7273C140.705 23.1932 140.982 21.8674 141.536 20.75C142.09 19.6326 142.85 18.7708 143.816 18.1648C144.782 17.5587 145.885 17.2557 147.125 17.2557C147.859 17.2557 148.548 17.3622 149.192 17.5753C149.841 17.7884 150.426 18.1009 150.946 18.5128C151.467 18.92 151.903 19.4171 152.253 20.0043C152.604 20.5866 152.845 21.2519 152.978 22ZM158.807 32.2557C158.116 32.2557 157.488 32.1255 156.925 31.8651C156.361 31.5999 155.914 31.2188 155.582 30.7216C155.251 30.2197 155.085 29.6136 155.085 28.9034C155.085 28.2784 155.208 27.7718 155.455 27.3835C155.701 26.9905 156.03 26.6828 156.442 26.4602C156.854 26.2377 157.308 26.072 157.805 25.9631C158.307 25.8494 158.812 25.7595 159.318 25.6932C159.981 25.608 160.518 25.544 160.93 25.5014C161.347 25.4541 161.65 25.3759 161.839 25.267C162.034 25.1581 162.131 24.9687 162.131 24.6989V24.642C162.131 23.9413 161.939 23.3968 161.555 23.0085C161.177 22.6203 160.601 22.4261 159.83 22.4261C159.029 22.4261 158.402 22.6013 157.947 22.9517C157.493 23.3021 157.173 23.6761 156.989 24.0739L155.398 23.5057C155.682 22.8428 156.061 22.3267 156.534 21.9574C157.012 21.5833 157.533 21.3229 158.097 21.1761C158.665 21.0246 159.223 20.9489 159.773 20.9489C160.123 20.9489 160.526 20.9915 160.98 21.0767C161.439 21.1572 161.882 21.3253 162.308 21.581C162.739 21.8366 163.097 22.2225 163.381 22.7386C163.665 23.2547 163.807 23.946 163.807 24.8125V32H162.131V30.5227H162.045C161.932 30.7595 161.742 31.0128 161.477 31.2827C161.212 31.5526 160.859 31.7822 160.419 31.9716C159.979 32.161 159.441 32.2557 158.807 32.2557ZM159.062 30.75C159.725 30.75 160.284 30.6198 160.739 30.3594C161.198 30.099 161.544 29.7628 161.776 29.3509C162.012 28.9389 162.131 28.5057 162.131 28.0511V26.517C162.06 26.6023 161.903 26.6804 161.662 26.7514C161.425 26.8177 161.151 26.8769 160.838 26.929C160.53 26.9763 160.23 27.0189 159.936 27.0568C159.647 27.09 159.413 27.1184 159.233 27.142C158.797 27.1989 158.39 27.2912 158.011 27.419C157.637 27.5421 157.334 27.7292 157.102 27.9801C156.875 28.2263 156.761 28.5625 156.761 28.9886C156.761 29.571 156.977 30.0114 157.408 30.3097C157.843 30.6032 158.395 30.75 159.062 30.75ZM166.866 32V21.0909H168.485V22.7386H168.599C168.798 22.1989 169.158 21.7609 169.679 21.4247C170.199 21.0885 170.787 20.9205 171.44 20.9205C171.563 20.9205 171.717 20.9228 171.902 20.9276C172.086 20.9323 172.226 20.9394 172.321 20.9489V22.6534C172.264 22.6392 172.134 22.6179 171.93 22.5895C171.731 22.5563 171.52 22.5398 171.298 22.5398C170.768 22.5398 170.294 22.651 169.877 22.8736C169.466 23.0914 169.139 23.3944 168.897 23.7827C168.661 24.1662 168.542 24.6042 168.542 25.0966V32H166.866ZM179.735 21.0909V22.5114H174.082V21.0909H179.735ZM175.73 18.4773H177.406V28.875C177.406 29.3485 177.475 29.7036 177.612 29.9403C177.754 30.1723 177.934 30.3286 178.152 30.4091C178.374 30.4848 178.609 30.5227 178.855 30.5227C179.039 30.5227 179.191 30.5133 179.309 30.4943C179.428 30.4706 179.522 30.4517 179.593 30.4375L179.934 31.9432C179.821 31.9858 179.662 32.0284 179.458 32.071C179.255 32.1184 178.997 32.142 178.684 32.142C178.211 32.142 177.747 32.0402 177.292 31.8366C176.842 31.633 176.468 31.3229 176.17 30.9062C175.877 30.4896 175.73 29.964 175.73 29.3295V18.4773Z" fill="white"/>
<g clip-path="url(#clip0_244_15)">
<path d="M18.75 45.8333C19.9006 45.8333 20.8333 44.9006 20.8333 43.75C20.8333 42.5994 19.9006 41.6667 18.75 41.6667C17.5994 41.6667 16.6667 42.5994 16.6667 43.75C16.6667 44.9006 17.5994 45.8333 18.75 45.8333Z" stroke="white" stroke-width="2" stroke-linecap="round" stroke-linejoin="round"/>
<path d="M41.6667 45.8333C42.8173 45.8333 43.75 44.9006 43.75 43.75C43.75 42.5994 42.8173 41.6667 41.6667 41.6667C40.5161 41.6667 39.5833 42.5994 39.5833 43.75C39.5833 44.9006 40.5161 45.8333 41.6667 45.8333Z" stroke="white" stroke-width="2" stroke-linecap="round" stroke-linejoin="round"/>
<path d="M2.08333 2.08333H10.4167L16 29.9792C16.1905 30.9383 16.7123 31.7999 17.474 32.4131C18.2358 33.0263 19.1889 33.3521 20.1667 33.3333H40.4167C41.3944 33.3521 42.3475 33.0263 43.1093 32.4131C43.871 31.7999 44.3928 30.9383 44.5833 29.9792L47.9167 12.5H12.5" stroke="white" stroke-width="2" stroke-linecap="round" stroke-linejoin="round"/>
</g>
<defs>
<clipPath id="clip0_244_15">
<rect width="50" height="50" fill="white"/>
</clipPath>
</defs>
</svg>
